<?xml version="1.0" standalone="no"?>
<!DOCTYPE svg PUBLIC "-//W3C//DTD SVG 20010904//EN"
 "http://www.w3.org/TR/2001/REC-SVG-20010904/DTD/svg10.dtd">
<svg version="1.0" xmlns="http://www.w3.org/2000/svg"
 width="1280.000000pt" height="1280.000000pt" viewBox="0 0 1280.000000 1280.000000"
 preserveAspectRatio="xMidYMid meet">
<g transform="translate(0.000000,1280.000000) scale(0.100000,-0.100000)"
fill="#000000" stroke="none">
<path d="M5966 12769 c-11 -49 -176 -1119 -176 -1142 0 -22 6 -24 93 -36 50
-7 216 -30 367 -52 151 -21 502 -70 780 -109 278 -38 534 -75 570 -80 36 -5
292 -41 570 -80 278 -39 534 -75 570 -80 55 -8 432 -61 1230 -172 125 -18 165
-27 168 -38 1 -9 -1173 -1190 -2741 -2759 -2398 -2397 -2747 -2742 -2763
-2733 -11 6 -592 587 -1293 1292 l-1274 1281 -189 -188 c-104 -103 -293 -295
-420 -425 l-230 -238 1278 -1286 c704 -707 1281 -1290 1283 -1296 2 -6 -846
-860 -1885 -1899 l-1888 -1888 291 -298 c402 -411 519 -526 531 -522 6 2 860
849 1897 1882 1038 1032 1893 1877 1900 1877 7 0 589 -578 1292 -1285 704
-707 1283 -1285 1289 -1285 5 0 198 189 429 420 l420 420 -1289 1289 c-709
709 -1287 1293 -1285 1299 7 20 5472 5502 5485 5502 16 0 15 7 73 -410 102
-720 329 -2335 451 -3190 32 -228 69 -491 81 -584 14 -97 28 -170 35 -173 11
-4 1164 174 1171 181 2 2 -3 48 -11 102 -9 55 -47 324 -86 599 -38 275 -142
1015 -230 1645 -88 630 -192 1370 -230 1645 -39 275 -75 529 -80 565 -5 36
-42 292 -80 570 -107 762 -119 851 -125 859 -2 5 -28 11 -57 14 -29 3 -377 51
-773 107 -396 55 -814 114 -930 130 -115 16 -534 75 -930 130 -396 55 -1136
159 -1645 230 -509 71 -1071 150 -1250 175 -179 25 -339 48 -357 51 -28 5 -33
3 -37 -17z"/>
</g>
</svg>
